<svg width="88" height="88" viewBox="0 0 88 88" fill="none" xmlns="http://www.w3.org/2000/svg">
<rect x="2" y="2" width="84" height="84" rx="2" stroke="#25C389" stroke-width="3"/>
<path d="M62 28.25H54.8675L50.75 23.75H37.25L33.1325 28.25H26C23.525 28.25 21.5 30.275 21.5 32.75V59.75C21.5 62.225 23.525 64.25 26 64.25H62C64.475 64.25 66.5 62.225 66.5 59.75V32.75C66.5 30.275 64.475 28.25 62 28.25ZM62 59.75H26V32.75H35.1125L39.23 28.25H48.77L52.8875 32.75H62V59.75ZM44 35C37.79 35 32.75 40.04 32.75 46.25C32.75 52.46 37.79 57.5 44 57.5C50.21 57.5 55.25 52.46 55.25 46.25C55.25 40.04 50.21 35 44 35ZM44 53C40.2875 53 37.25 49.9625 37.25 46.25C37.25 42.5375 40.2875 39.5 44 39.5C47.7125 39.5 50.75 42.5375 50.75 46.25C50.75 49.9625 47.7125 53 44 53Z" fill="#25C389"/>
</svg>
