<svg width="134" height="50" viewBox="0 0 134 50" fill="none" xmlns="http://www.w3.org/2000/svg">
<g clip-path="url(#clip0_39_1187)">
<path d="M19.7803 2.59206L1.80089 21.0118C-4.2739 28.5434 5.93506 27.6671 10.3115 29.8364C11.8814 31.443 4.29424 32.6288 5.86413 34.2367C7.43402 35.8432 15.3571 37.3319 16.9296 38.9384C18.4995 40.545 13.7163 42.2493 15.2861 43.8559C16.856 45.4624 20.487 43.9403 21.1669 47.6492C21.6513 50.2995 27.7101 48.7881 30.6732 46.6174C32.2431 45.0095 27.6699 45.161 29.2398 43.5544C33.1438 39.5575 36.7788 42.1019 38.1144 38.097C38.7742 36.1179 32.3675 35.046 33.9401 33.4394C38.4571 30.7985 54.069 29.0794 46.6612 21.663L28.0246 2.59206C25.7454 0.40131 21.9418 0.377192 19.7803 2.59206ZM40.4325 38.097C40.4325 39.0108 47.1577 39.6097 47.1577 37.8812C46.1994 35.1049 41.2274 35.2925 40.4325 38.097ZM10.1375 42.9528C11.7301 44.3316 14.19 42.6098 14.9275 40.6857C13.3843 38.6329 7.608 40.7594 10.1375 42.9528ZM39.5893 39.9742C37.5363 41.8179 39.8195 43.6884 41.8431 42.4972C42.2941 42.039 41.831 40.4324 39.5893 39.9742Z" fill="black"/>
<path d="M15.4775 30.8333C15.958 31.1321 23.2253 32.61 25.0013 32.9047C25.6169 33.0347 25.1806 33.6698 24.3321 34.0986C22.4182 34.6078 13.1354 30.8333 15.4775 30.8333Z" fill="white"/>
<path d="M26.9379 3.88378L34.0513 11.1166C34.7258 11.8067 34.7164 13.1439 34.339 13.5284L30.8071 10.6999L30.1125 14.8884L27.1614 13.3288L22.4357 16.3181L20.8711 10.0165L18.3323 14.4141H14.4511C12.8691 14.4141 12.6831 12.4043 14.1205 10.9652C16.6312 8.25188 19.5127 5.48631 21.0786 3.88378C22.6525 2.27321 25.3948 2.31876 26.9379 3.88378Z" fill="white"/>
<path d="M66.4571 31.2024C66.1881 31.2024 66.0536 31.0132 66.0536 30.6347C66.0536 30.2561 66.2499 29.8339 66.6425 29.3681C67.2969 28.5819 68.2057 28.127 69.3691 28.0032L69.9689 27.9705C71.2922 27.9705 72.2519 28.4982 72.8481 29.5537C73.2044 30.2015 73.3825 30.9477 73.3825 31.7921C73.3825 32.1415 73.3535 32.5091 73.2953 32.8949C73.0844 34.1906 72.5828 35.2897 71.7902 36.1924C70.9177 37.1896 69.8998 37.6882 68.7365 37.6882C67.5805 37.6882 66.8461 37.3643 66.5335 36.7165C66.4389 36.5127 66.3917 36.2979 66.3917 36.0723C66.3917 35.8393 66.4535 35.5955 66.5771 35.3407C66.817 34.8748 67.1442 34.6419 67.5586 34.6419C67.595 34.6419 67.6168 34.6637 67.6241 34.7074C67.6386 34.7438 67.635 34.7838 67.6132 34.8275C67.5986 34.8712 67.5732 34.893 67.5368 34.893C67.2896 34.893 67.0751 35.0532 66.8934 35.3734C66.777 35.5991 66.7189 35.8066 66.7189 35.9958C66.7189 36.1851 66.7552 36.3598 66.8279 36.5199C67.0606 37.0149 67.6168 37.2624 68.4966 37.2624C69.4927 37.2624 70.3943 36.7529 71.2013 35.7338C71.9284 34.8166 72.3974 33.7393 72.6082 32.5018C72.6809 32.1014 72.7173 31.7229 72.7173 31.3662C72.7173 30.5728 72.5391 29.9031 72.1829 29.3572C71.7103 28.622 70.9686 28.2543 69.958 28.2543C68.6929 28.2543 67.744 28.6802 67.1115 29.5319C66.7916 29.9686 66.6316 30.3763 66.6316 30.7548C66.6316 30.9076 66.6643 30.9841 66.7298 30.9841C66.6861 31.1296 66.5953 31.2024 66.4571 31.2024ZM68.0276 35.3407C68.0276 34.2342 68.1258 33.1606 68.3221 32.1196C68.5184 31.0714 68.7583 30.2452 69.0419 29.641C69.3327 29.0296 69.6126 28.7239 69.8817 28.7239C69.998 28.7239 70.0562 28.7821 70.0562 28.8986C69.729 29.5755 69.4418 30.4782 69.1946 31.6064C68.7365 33.6665 68.5075 35.1551 68.5075 36.0723C68.5075 36.1669 68.4566 36.2142 68.3548 36.2142C68.1367 36.2142 68.0276 35.923 68.0276 35.3407Z" fill="black"/>
<path d="M77.6197 33.2881C77.3434 33.2881 77.2052 32.986 77.2052 32.3819C77.2052 32.0397 77.2707 31.7194 77.4016 31.421C76.9071 31.8505 76.3546 32.6512 75.7438 33.8231C75.1331 34.9878 74.8277 35.7485 74.8277 36.1052C74.8277 36.1925 74.7695 36.2362 74.6532 36.2362C74.4423 36.2362 74.3369 35.9487 74.3369 35.3736C74.3369 34.289 74.446 33.3063 74.6641 32.4255C74.8822 31.5447 75.1476 31.1043 75.4602 31.1043C75.5984 31.1043 75.6675 31.1844 75.6675 31.3446C75.333 32.4073 75.0931 33.4956 74.9477 34.6093H75.024C75.6129 33.2481 76.2637 32.1853 76.9762 31.421C77.3834 30.9842 77.7542 30.7659 78.0886 30.7659C78.1614 30.7659 78.2195 30.7877 78.2631 30.8314C78.314 30.8751 78.3395 30.9296 78.3395 30.9952C78.2886 31.0461 78.2268 31.1225 78.1541 31.2245C78.0814 31.3264 77.9832 31.5702 77.8596 31.956C77.736 32.3345 77.6742 32.7495 77.6742 33.2008C77.6742 33.259 77.656 33.2881 77.6197 33.2881Z" fill="black"/>
<path d="M79.2481 36.4217C78.6519 36.4217 78.3538 35.9522 78.3538 35.0132C78.3538 34.4527 78.4919 33.8376 78.7682 33.1679C79.1536 32.2289 79.6589 31.5883 80.2842 31.2462C80.5532 31.1006 80.804 31.0278 81.0367 31.0278C81.2694 31.0278 81.4511 31.0788 81.582 31.1807C81.7201 31.2826 81.8074 31.3845 81.8437 31.4864L81.9092 31.6284C81.8874 31.7521 81.8256 31.814 81.7238 31.814C81.6074 31.814 81.5384 31.7885 81.5166 31.7376C81.502 31.6793 81.4838 31.632 81.462 31.5956C81.4402 31.5519 81.3893 31.4973 81.3093 31.4318C81.2294 31.359 81.1385 31.3226 81.0367 31.3226C80.5641 31.3226 80.1351 31.7485 79.7498 32.6001C79.3135 33.5828 79.0954 34.5073 79.0954 35.3735C79.0954 35.8103 79.1826 36.0287 79.3571 36.0287C79.4953 36.0287 79.688 35.8758 79.9352 35.5701C80.1896 35.2571 80.455 34.8676 80.7313 34.4018C81.2112 33.601 81.6002 32.9059 81.8983 32.3163C82.1455 31.7921 82.4 31.5301 82.6617 31.5301C82.7999 31.5301 82.8689 31.6138 82.8689 31.7812C82.8035 31.9195 82.7199 32.1161 82.6181 32.3708C82.5163 32.6256 82.3818 33.1315 82.2146 33.8886C82.0473 34.6456 81.9637 35.399 81.9637 36.1488C81.9637 36.8985 82.0764 37.2734 82.3018 37.2734C82.3891 37.2734 82.469 37.2334 82.5417 37.1533C82.6144 37.0805 82.6799 36.9677 82.7381 36.8148C82.7599 36.7348 82.8108 36.6947 82.8907 36.6947C82.9198 36.6947 82.9416 36.7056 82.9562 36.7275C82.9707 36.7493 82.9707 36.7857 82.9562 36.8367C82.9416 36.8876 82.9162 36.9568 82.8798 37.0441C82.8435 37.1388 82.7635 37.2625 82.6399 37.4154C82.5236 37.5682 82.4 37.6447 82.2691 37.6447C81.9637 37.6447 81.7274 37.4445 81.5602 37.0441C81.4002 36.6438 81.3202 36.1706 81.3202 35.6247C81.3202 35.0787 81.3602 34.5546 81.4402 34.0524H81.3312C80.4078 35.632 79.7134 36.4217 79.2481 36.4217Z" fill="black"/>
<path d="M89.4619 31.4755C89.6727 31.6356 89.8727 31.7157 90.0617 31.7157C90.258 31.7157 90.3962 31.6902 90.4762 31.6393C90.4762 31.7339 90.4325 31.8249 90.3453 31.9122C90.2653 31.9923 90.1453 32.0324 89.9854 32.0324C89.8327 32.0324 89.6655 31.996 89.4837 31.9232C89.4692 32.6074 89.3565 33.3099 89.1456 34.0305C88.9348 34.7439 88.6621 35.3444 88.3277 35.8321C87.9932 36.3125 87.6624 36.5528 87.3352 36.5528C87.008 36.5528 86.7572 36.4254 86.5827 36.1706C86.4009 35.8867 86.31 35.4827 86.31 34.9586C86.31 34.6602 86.3282 34.3399 86.3645 33.9977C85.463 35.6137 84.7686 36.4217 84.2815 36.4217C83.8016 36.4217 83.5616 36.0141 83.5616 35.1988C83.5616 34.3544 83.7689 33.4518 84.1833 32.4909C84.5323 31.7266 84.8522 31.3263 85.143 31.2899C85.2812 31.2899 85.3503 31.3663 85.3503 31.5192C85.263 31.7303 85.154 32.0032 85.0231 32.3381C84.8922 32.6656 84.7177 33.1934 84.4996 33.9213C84.2887 34.6492 84.1833 35.1879 84.1833 35.5373C84.1833 35.8794 84.2596 36.0505 84.4123 36.0505C84.6014 36.0505 84.8958 35.7448 85.2957 35.1333C85.7029 34.5219 86.0592 33.9104 86.3645 33.2989L86.8335 32.3927C87.0371 31.985 87.2189 31.7812 87.3788 31.7812C87.5388 31.7812 87.6188 31.8577 87.6188 32.0105C87.1752 33.5319 86.9535 34.722 86.9535 35.581C86.9535 35.9813 87.0698 36.1815 87.3025 36.1815C87.5642 36.1815 87.8369 35.9668 88.1204 35.5373C88.4113 35.1006 88.6512 34.5364 88.8402 33.8449C89.0366 33.1461 89.1347 32.4582 89.1347 31.7812V31.7157C88.9239 31.5628 88.753 31.3809 88.6221 31.1698C88.4912 30.9587 88.4258 30.8022 88.4258 30.7002C88.4258 30.5911 88.4731 30.4928 88.5676 30.4054C88.6621 30.3181 88.7639 30.2744 88.873 30.2744C89.0111 30.2744 89.1347 30.3982 89.2438 30.6457C89.3528 30.8859 89.4255 31.1625 89.4619 31.4755Z" fill="black"/>
<path d="M95.2421 30.8313C95.2421 31.37 95.3948 31.6575 95.7001 31.6939C95.6783 31.7958 95.5947 31.8468 95.4493 31.8468C95.1512 31.8468 94.9403 31.6648 94.8167 31.3008C94.7586 31.1334 94.7295 30.9296 94.7295 30.6894C94.7295 30.4419 94.824 30.1471 95.0131 29.8049C95.442 29.0115 96.22 28.5019 97.347 28.2763C97.7323 28.2035 98.1431 28.1671 98.5794 28.1671C99.0229 28.1671 99.401 28.1234 99.7136 28.0361C100.026 27.9487 100.241 27.8505 100.357 27.7413C100.662 27.4574 100.888 27.3154 101.033 27.3154C101.179 27.3154 101.251 27.3591 101.251 27.4465C101.251 27.4683 101.251 27.4901 101.251 27.512C101.201 27.7158 100.982 27.9087 100.597 28.0907C100.364 28.1926 100.103 28.2727 99.8118 28.3309C99.5718 28.4328 99.3719 28.713 99.2119 29.1716C99.052 29.623 98.8848 30.2781 98.7103 31.137C99.0883 31.1006 99.401 31.0824 99.6482 31.0824C99.7136 31.0824 99.7427 31.1225 99.7354 31.2026C99.7064 31.2899 99.63 31.3372 99.5064 31.3445C99.3828 31.3445 99.0956 31.3809 98.6448 31.4537C98.3031 33.1425 98.005 34.3363 97.7505 35.0351C97.1107 36.8039 96.1982 37.6884 95.0131 37.6884C94.1624 37.6884 93.6316 37.2989 93.4208 36.52C93.3408 36.2507 93.3008 35.9814 93.3008 35.712C93.3008 35.2025 93.4353 34.6929 93.7043 34.1834C94.1115 33.4045 94.6459 33.0151 95.3075 33.0151C95.402 33.0151 95.4784 33.0369 95.5366 33.0806C95.602 33.1243 95.6456 33.1898 95.6674 33.2771C95.0421 33.2771 94.5259 33.6011 94.1187 34.2489C93.7988 34.7512 93.6389 35.2716 93.6389 35.8103C93.6389 36.5965 93.9152 37.0769 94.4677 37.2516C94.5986 37.288 94.7695 37.3062 94.9803 37.3062C95.1912 37.3062 95.4129 37.2443 95.6456 37.1206C95.8856 37.0041 96.1 36.7857 96.2891 36.4654C96.4854 36.1524 96.6453 35.8904 96.769 35.6793C96.8926 35.4609 97.0343 35.0751 97.1943 34.5219C97.3833 33.8449 97.5433 33.2189 97.6742 32.6438C97.805 32.0615 97.885 31.7121 97.9141 31.5956C97.5069 31.6611 97.1979 31.6939 96.9871 31.6939C96.7835 31.6939 96.6672 31.6029 96.6381 31.4209C96.6308 31.2753 96.6708 31.1916 96.758 31.1698C96.7944 31.2135 96.9071 31.2353 97.0961 31.2353C97.2924 31.2353 97.5978 31.2171 98.0123 31.1807C98.194 30.4673 98.3685 29.8886 98.5358 29.4446C98.703 28.9933 98.8993 28.6512 99.1247 28.4182C99.0084 28.4255 98.8266 28.4292 98.5794 28.4292C97.1834 28.4292 96.2055 28.8404 95.6456 29.663C95.3766 30.0488 95.2421 30.4382 95.2421 30.8313ZM100.041 33.0697C100.041 33.1061 100.008 33.1243 99.9427 33.1243C99.8772 33.1243 99.8118 33.1097 99.7463 33.0806C99.6882 33.0515 99.6591 33.0114 99.6591 32.9605C99.6591 32.218 99.7427 31.6211 99.9099 31.1698C100.077 30.7112 100.299 30.4819 100.575 30.4819C100.648 30.4819 100.71 30.5074 100.761 30.5583C100.812 30.6093 100.837 30.6784 100.837 30.7658C100.51 31.0934 100.273 31.5811 100.128 32.2289C100.07 32.4983 100.041 32.7785 100.041 33.0697Z" fill="black"/>
<path d="M104.22 33.2881C103.943 33.2881 103.805 32.986 103.805 32.3819C103.805 32.0397 103.871 31.7194 104.001 31.421C103.507 31.8505 102.954 32.6512 102.344 33.8231C101.733 34.9878 101.428 35.7485 101.428 36.1052C101.428 36.1925 101.369 36.2362 101.253 36.2362C101.042 36.2362 100.937 35.9487 100.937 35.3736C100.937 34.289 101.046 33.3063 101.264 32.4255C101.482 31.5447 101.747 31.1043 102.06 31.1043C102.198 31.1043 102.267 31.1844 102.267 31.3446C101.933 32.4073 101.693 33.4956 101.548 34.6093H101.624C102.213 33.2481 102.864 32.1853 103.576 31.421C103.983 30.9842 104.354 30.7659 104.688 30.7659C104.761 30.7659 104.819 30.7877 104.863 30.8314C104.914 30.8751 104.939 30.9296 104.939 30.9952C104.888 31.0461 104.827 31.1225 104.754 31.2245C104.681 31.3264 104.583 31.5702 104.459 31.956C104.336 32.3345 104.274 32.7495 104.274 33.2008C104.274 33.259 104.256 33.2881 104.22 33.2881Z" fill="black"/>
<path d="M107.789 31.1262C108.342 31.1262 108.618 31.4501 108.618 32.098C108.618 32.4692 108.494 32.8587 108.247 33.2663C107.826 33.9433 107.266 34.2818 106.568 34.2818C106.459 34.2818 106.368 34.2636 106.295 34.2272C106.222 34.1908 106.168 34.1362 106.131 34.0634C106.648 34.0634 107.12 33.7649 107.549 33.168C107.898 32.6876 108.073 32.2472 108.073 31.8469C108.073 31.5484 107.953 31.3992 107.713 31.3992C107.233 31.3992 106.786 31.7741 106.371 32.5238C105.928 33.3391 105.706 34.1762 105.706 35.0352C105.706 35.7631 105.913 36.1999 106.328 36.3454C106.408 36.3746 106.51 36.3891 106.633 36.3891C106.757 36.3891 106.888 36.36 107.026 36.3018C107.164 36.2363 107.28 36.1598 107.375 36.0725C107.564 35.8978 107.72 35.7049 107.844 35.4938C107.873 35.4355 107.927 35.4064 108.007 35.4064C108.138 35.4064 108.2 35.4283 108.193 35.4719C108.171 35.552 108.087 35.6867 107.942 35.8759C107.804 36.0652 107.673 36.2181 107.549 36.3345C107.433 36.4437 107.277 36.542 107.08 36.6293C106.891 36.724 106.699 36.7713 106.502 36.7713C105.732 36.7713 105.241 36.4073 105.03 35.6794C104.964 35.4319 104.932 35.1771 104.932 34.9151C104.932 34.4274 105.044 33.896 105.27 33.3209C105.626 32.4474 106.117 31.8178 106.742 31.432C107.084 31.2281 107.433 31.1262 107.789 31.1262Z" fill="black"/>
<path d="M112.023 31.1262C112.575 31.1262 112.852 31.4501 112.852 32.098C112.852 32.4692 112.728 32.8587 112.481 33.2663C112.059 33.9433 111.499 34.2818 110.801 34.2818C110.692 34.2818 110.601 34.2636 110.529 34.2272C110.456 34.1908 110.401 34.1362 110.365 34.0634C110.881 34.0634 111.354 33.7649 111.783 33.168C112.132 32.6876 112.306 32.2472 112.306 31.8469C112.306 31.5484 112.186 31.3992 111.946 31.3992C111.466 31.3992 111.019 31.7741 110.605 32.5238C110.161 33.3391 109.94 34.1762 109.94 35.0352C109.94 35.7631 110.147 36.1999 110.561 36.3454C110.641 36.3746 110.743 36.3891 110.867 36.3891C110.99 36.3891 111.121 36.36 111.259 36.3018C111.397 36.2363 111.514 36.1598 111.608 36.0725C111.797 35.8978 111.954 35.7049 112.077 35.4938C112.106 35.4355 112.161 35.4064 112.241 35.4064C112.372 35.4064 112.434 35.4283 112.426 35.4719C112.404 35.552 112.321 35.6867 112.175 35.8759C112.037 36.0652 111.906 36.2181 111.783 36.3345C111.666 36.4437 111.51 36.542 111.314 36.6293C111.125 36.724 110.932 36.7713 110.736 36.7713C109.965 36.7713 109.474 36.4073 109.263 35.6794C109.198 35.4319 109.165 35.1771 109.165 34.9151C109.165 34.4274 109.278 33.896 109.503 33.3209C109.86 32.4474 110.35 31.8178 110.976 31.432C111.317 31.2281 111.666 31.1262 112.023 31.1262Z" fill="black"/>
<path d="M115.002 38.0158C114.58 38.0158 114.268 37.7938 114.064 37.3498C113.868 36.9057 113.77 36.2397 113.77 35.3516C113.77 34.4635 113.901 33.4117 114.162 32.1961C114.424 30.9804 114.73 29.9723 115.079 29.1715C115.435 28.3708 115.744 27.9705 116.006 27.9705C116.129 27.9705 116.191 28.0433 116.191 28.1888C116.038 28.5382 115.846 29.066 115.613 29.7721C115.38 30.4709 115.184 31.1187 115.024 31.7156C114.871 32.3125 114.73 33.0113 114.599 33.8121C114.475 34.6128 114.413 35.3007 114.413 35.8757C114.413 36.4435 114.468 36.8803 114.577 37.186C114.693 37.499 114.849 37.6555 115.046 37.6555C115.213 37.6555 115.373 37.5754 115.526 37.4153C115.678 37.2624 115.787 37.1096 115.853 36.9567C115.889 36.8766 115.955 36.8548 116.049 36.8912C116.086 36.9057 116.093 36.9348 116.071 36.9785C116.056 37.0295 116.027 37.0913 115.984 37.1641C115.947 37.2369 115.878 37.3498 115.777 37.5026C115.558 37.8448 115.3 38.0158 115.002 38.0158Z" fill="black"/>
<path d="M116.58 39.8395C117.234 39.8395 117.747 39.5301 118.118 38.9114C118.438 38.3654 118.685 37.6848 118.859 36.8695C117.543 36.8987 116.533 37.4009 115.827 38.3763C115.784 38.4419 115.715 38.4528 115.62 38.4091C115.569 38.38 115.555 38.3436 115.577 38.2999C115.889 37.8268 116.325 37.4228 116.885 37.0879C117.445 36.7604 118.125 36.582 118.925 36.5529C119.005 36.1889 119.081 35.7631 119.154 35.2754C119.227 34.7877 119.31 34.3145 119.405 33.8559H119.306C118.361 35.5374 117.641 36.3782 117.147 36.3782C116.594 36.3782 116.318 35.9524 116.318 35.1007C116.318 34.249 116.5 33.3937 116.863 32.5348C117.227 31.6685 117.558 31.2027 117.856 31.1371L117.921 31.1262C118.045 31.1262 118.107 31.2063 118.107 31.3664C118.027 31.563 117.925 31.8214 117.801 32.1417C117.678 32.4547 117.514 32.9751 117.311 33.7031C117.107 34.4237 117.005 34.9879 117.005 35.3955C117.005 35.7959 117.093 35.996 117.267 35.996C117.471 35.996 117.798 35.643 118.249 34.9369C118.91 33.9033 119.485 32.855 119.972 31.7923C120.183 31.3482 120.408 31.1262 120.648 31.1262C120.801 31.1262 120.877 31.2099 120.877 31.3774C120.739 31.6321 120.572 32.1089 120.375 32.8077C120.179 33.5065 120.019 34.2126 119.895 34.926C119.772 35.6321 119.666 36.1853 119.579 36.5857C120.132 36.6803 120.452 36.9205 120.539 37.3063C120.553 37.3718 120.561 37.4592 120.561 37.5684C120.561 37.6848 120.517 37.7831 120.43 37.8632C120.343 37.9505 120.266 37.9942 120.201 37.9942C120.215 37.9432 120.219 37.8522 120.212 37.7212C120.204 37.5975 120.179 37.4919 120.135 37.4046C120.099 37.3172 120.026 37.2262 119.917 37.1316C119.808 37.037 119.666 36.9678 119.492 36.9241C118.932 39.0351 117.961 40.0906 116.58 40.0906C115.984 40.0906 115.587 39.8795 115.391 39.4573C115.384 39.4355 115.38 39.4173 115.38 39.4027C115.38 39.359 115.42 39.3299 115.5 39.3154C115.573 39.3081 115.627 39.3336 115.664 39.3918C115.795 39.6903 116.1 39.8395 116.58 39.8395Z" fill="black"/>
<path d="M122.184 36.4982C122.032 36.4982 121.955 36.3563 121.955 36.0724C121.955 35.8977 122.002 35.7121 122.097 35.5155C122.192 35.319 122.326 35.2207 122.501 35.2207C122.646 35.2207 122.719 35.3044 122.719 35.4718C122.719 35.6393 122.584 35.9195 122.315 36.3126L122.184 36.4982Z" fill="black"/>
<path d="M57.6848 19.3839C57.6503 17.9687 57.633 17.1749 57.633 15.7425C57.633 14.3102 57.633 13.4646 57.6848 12.0149C57.7192 10.5826 57.9605 10.5308 59.1672 10.4445C59.2706 10.341 59.2706 10.1512 59.1672 10.0476C58.5294 10.0821 57.4607 10.1339 56.9435 10.1339C56.4264 10.1339 55.2543 10.0821 54.7027 10.0476C54.5993 10.1512 54.5993 10.341 54.7027 10.4445C55.9093 10.5481 56.1851 10.5826 56.2196 12.0149C56.2541 13.4473 56.2713 14.2929 56.2713 15.7253C56.2713 17.1577 56.2541 17.9515 56.2196 19.3839C56.1851 20.8162 55.9093 20.9025 54.7027 20.9543C54.5993 21.0578 54.5993 21.2476 54.7027 21.3512C55.3749 21.3167 56.4264 21.2649 56.9435 21.2649C57.4607 21.2649 58.4604 21.2994 59.1672 21.3512C59.2706 21.2476 59.2706 21.0578 59.1672 20.9543C57.9605 20.9025 57.7192 20.8162 57.6848 19.3839Z" fill="black"/>
<path d="M69.547 12.2048L69.5642 18.1931C69.5642 18.521 69.478 18.7108 69.3574 18.7108C69.2195 18.7108 69.0299 18.4002 68.53 17.7617L62.6176 10.1339L60.394 10.0994C60.2905 10.2029 60.2905 10.3928 60.394 10.4963C61.2213 10.5481 61.6523 11.1003 61.8419 11.7733L61.8247 19.194C61.8247 20.7299 61.5316 20.8335 60.325 20.9543C60.2216 21.0578 60.2216 21.2476 60.325 21.3512C61.1696 21.3339 61.4627 21.2649 62.1866 21.2649C62.9106 21.2649 63.1692 21.3339 64.031 21.3512C64.1345 21.2476 64.1345 21.0578 64.031 20.9543C62.8244 20.8335 62.5314 20.7644 62.5314 19.194L62.5141 13.6889C62.5141 13.1022 62.6003 12.8433 62.7382 12.8433C62.8417 12.8433 63.0313 13.0331 63.3243 13.4128L69.3401 21.0233C69.5298 21.2822 69.7538 21.4375 70.0296 21.4375C70.271 21.4375 70.2365 21.2304 70.2365 20.9025L70.2537 12.2048C70.2537 10.6689 70.5468 10.5653 71.7534 10.4445C71.8568 10.341 71.8568 10.1512 71.7534 10.0476C70.9087 10.0649 70.6157 10.1339 69.8917 10.1339C69.1678 10.1339 68.9092 10.0649 68.0473 10.0476C67.9439 10.1512 67.9439 10.341 68.0473 10.4445C69.254 10.5653 69.547 10.6344 69.547 12.2048Z" fill="black"/>
<path d="M75.7301 19.3839C75.6957 18.0033 75.6784 17.2094 75.6784 15.8461C76.2817 15.8633 76.885 16.1395 77.247 16.5882L79.9533 20.0051C80.298 20.4538 80.5394 20.9715 80.5738 21.2476C80.5738 21.2994 80.5911 21.3512 80.66 21.3512C81.0048 21.3339 80.9703 21.2649 81.4874 21.2649C82.1597 21.2649 82.5906 21.3339 83.4008 21.3512C83.5042 21.2476 83.5042 21.0578 83.4008 20.9543C83.0905 20.9025 82.2976 20.7299 81.7115 20.0051L77.9365 15.5182C77.7986 15.3629 77.7124 15.2248 77.7124 15.0868C77.7124 14.966 77.7297 14.8452 78.3157 14.2411L80.8496 11.6353C81.6426 10.7897 82.5044 10.5308 83.1939 10.4445C83.2973 10.341 83.2973 10.1512 83.1939 10.0476C82.3838 10.0649 82.0735 10.1339 81.384 10.1339C80.6945 10.1339 80.1601 10.0649 79.35 10.0476C79.2466 10.1512 79.2466 10.341 79.35 10.4445C79.9705 10.4963 80.7117 10.7897 80.005 11.5663L77.247 14.6036C76.885 15.0005 76.3162 15.3111 75.6784 15.3629C75.6784 14.1549 75.6957 13.3265 75.7301 12.0149C75.7646 10.5826 76.0232 10.4963 77.2298 10.4445C77.3332 10.341 77.3332 10.1512 77.2298 10.0476C76.3852 10.0649 75.8508 10.1339 74.9717 10.1339C74.1098 10.1339 73.6272 10.0649 72.7653 10.0476C72.6619 10.1512 72.6619 10.341 72.7653 10.4445C73.9719 10.4963 74.2133 10.5826 74.2477 12.0149C74.2822 13.4473 74.3167 14.2929 74.3167 15.7253C74.3167 17.1577 74.2822 17.9515 74.2477 19.3839C74.2133 20.8162 73.9719 20.9025 72.7653 20.9543C72.6619 21.0578 72.6619 21.2476 72.7653 21.3512C73.6099 21.3339 74.1271 21.2649 75.0062 21.2649C75.868 21.2649 76.3679 21.3339 77.2298 21.3512C77.3332 21.2476 77.3332 21.0578 77.2298 20.9543C76.0232 20.9025 75.7646 20.8162 75.7301 19.3839Z" fill="black"/>
<path d="M90.3558 10.3754C89.356 10.2373 89.4077 9.90942 87.7185 9.90942C85.9775 9.90942 84.4434 11.0657 84.4434 12.895C84.4434 14.5172 85.581 15.2937 86.9255 15.8632C88.0115 16.3464 89.8042 16.7261 89.8042 18.6934C89.8042 20.0913 88.9768 20.9887 87.615 20.9887C85.9947 20.9887 84.7881 20.0913 84.4089 18.3656C84.202 18.2965 84.1848 18.331 84.0297 18.4173C84.0986 19.7461 84.1676 20.1948 84.3744 21.0404C85.4604 21.0404 85.9258 21.4374 87.4599 21.4374C88.2528 21.4374 88.994 21.2475 89.5973 20.8851C90.5799 20.2639 91.2176 19.1939 91.2176 18.0894C91.2176 16.45 90.0972 15.6734 88.8389 15.1384C88.0115 14.7933 85.6327 14.1202 85.6327 12.429C85.6327 11.4626 86.5463 10.3236 87.5461 10.3236C89.2353 10.3236 89.9421 11.5661 90.2868 12.7051C90.4764 12.7051 90.5109 12.7224 90.666 12.6016C90.6143 11.7732 90.5454 11.29 90.3558 10.3754Z" fill="black"/>
<path d="M97.9639 21.4374C99.6359 21.4374 101.342 20.6435 102.515 19.1076C102.428 18.9523 102.308 18.8488 102.118 18.8488C100.894 20.1948 99.7221 20.7298 98.1191 20.7298C95.4473 20.7298 94.1028 18.0204 94.1028 15.5008C94.1028 12.6879 95.8954 10.3754 98.0673 10.3754C100.446 10.3754 101.463 11.9631 101.911 13.4472C102.066 13.4644 102.17 13.4472 102.308 13.3609C102.222 12.4635 102.101 11.6352 101.929 10.686C101.049 10.5997 100.274 9.90942 98.1535 9.90942C94.7405 9.90942 92.5514 12.5843 92.5514 15.8287C92.5514 18.8833 94.2579 21.4374 97.9639 21.4374Z" fill="black"/>
<path d="M107.606 16.4672C107.227 16.4672 107.106 16.3292 107.175 16.1566L108.985 11.6869H109.037L110.692 16.4672H107.606ZM105.658 20.074L106.693 17.3991C106.779 17.1748 106.882 17.0195 107.296 17.0195H110.899L111.985 20.1948C112.226 20.9024 111.536 20.9024 110.709 20.9542C110.606 21.0577 110.606 21.2475 110.709 21.3511C111.347 21.3338 112.295 21.2648 112.967 21.2648C113.674 21.2648 114.415 21.3338 115.053 21.3511C115.156 21.2475 115.156 21.0577 115.053 20.9542C114.381 20.9024 113.812 20.8334 113.501 19.9532L109.899 9.90942C109.64 10.0647 109.227 10.2546 109.003 10.2546L105.003 19.6771C104.555 20.7298 104.038 20.9024 103.28 20.9542C103.176 21.0577 103.176 21.2475 103.28 21.3511C103.917 21.3338 104.314 21.2648 104.986 21.2648C105.693 21.2648 106.21 21.3338 106.848 21.3511C106.951 21.2475 106.951 21.0577 106.848 20.9542C106.193 20.9196 105.383 20.7988 105.658 20.074Z" fill="black"/>
<path d="M118.401 16.1566C118.78 16.2774 119.28 16.3119 119.866 16.3119C123.003 16.3119 123.899 14.3446 123.899 12.8777C123.899 11.8595 123.262 9.96118 120.073 9.96118C119.625 9.96118 118.418 10.1338 117.728 10.1338C116.867 10.1338 116.384 10.0647 115.522 10.0475C115.419 10.151 115.419 10.3408 115.522 10.4444C116.729 10.4962 116.987 10.5825 117.004 12.0148C117.022 13.4472 117.039 14.2928 117.039 15.7252C117.039 17.1575 117.039 17.9514 117.004 19.3837C116.97 20.8333 116.729 20.9024 115.522 20.9541C115.419 21.0577 115.419 21.2475 115.522 21.3511C116.367 21.3338 116.884 21.2648 117.763 21.2648C118.728 21.2648 119.349 21.3338 120.211 21.3511C120.314 21.2475 120.314 21.0577 120.211 20.9541C119.021 20.8851 118.452 20.7988 118.435 19.7979C118.418 18.5036 118.401 17.3991 118.401 16.1566ZM118.435 11.2037C118.452 10.7033 118.728 10.3754 119.969 10.3754C121.159 10.3754 122.382 10.9966 122.382 13.1883C122.382 15.0521 121.434 15.8977 119.762 15.8977C119.349 15.8977 118.625 15.8632 118.401 15.8114V15.7252C118.401 14.2928 118.418 12.6361 118.435 11.2037Z" fill="black"/>
<path d="M130.046 15.1039L128.029 15.1211C128.029 15.1211 128.012 12.7741 128.064 11.359C128.081 10.9448 128.288 10.5997 128.702 10.5997H131.391C132.683 10.5997 132.942 11.5143 133.321 12.7051C133.528 12.7396 133.563 12.7051 133.735 12.6188C133.649 11.9113 133.39 10.2028 133.356 10.0647C133.356 10.0302 133.338 10.0129 133.287 10.0129C132.994 10.0647 132.839 10.1337 132.425 10.1337H127.392C126.874 10.1337 126.013 10.0647 125.151 10.0475C125.047 10.151 125.047 10.3408 125.151 10.4444C126.357 10.4961 126.581 10.5824 126.633 12.0148C126.668 13.4299 126.668 14.2928 126.668 15.7251C126.668 17.1575 126.668 17.9686 126.633 19.3837C126.581 20.8161 126.357 20.9024 125.151 20.9541C125.047 21.0577 125.047 21.2475 125.151 21.351C125.995 21.3338 126.909 21.2648 127.426 21.2648H131.253C132.08 21.2648 133.459 21.351 133.459 21.351C133.7 20.4882 133.942 19.2974 134.08 18.4173C133.907 18.3137 133.89 18.2792 133.666 18.331C133.321 19.5735 132.701 20.8161 131.391 20.8161H128.702C128.322 20.8161 128.081 20.54 128.064 20.074C128.012 18.6244 128.029 15.6043 128.029 15.6043L130.046 15.6216C131.511 15.6389 131.58 16.0013 131.632 16.7778C131.735 16.8814 131.908 16.8814 132.011 16.7778C131.994 16.1738 131.942 15.9667 131.942 15.4318C131.942 14.8623 131.994 14.4654 132.011 13.9476C131.908 13.8441 131.735 13.8441 131.632 13.9476C131.58 14.8968 131.511 15.1039 130.046 15.1039Z" fill="black"/>
</g>
<defs>
<clipPath id="clip0_39_1187">
<rect width="134" height="48.1199" fill="white" transform="translate(0 0.939941)"/>
</clipPath>
</defs>
</svg>
