<svg width="88" height="88" viewBox="0 0 88 88" fill="none" xmlns="http://www.w3.org/2000/svg">
<rect x="2" y="2" width="84" height="84" rx="2" stroke="#FEB902" stroke-width="3"/>
<path d="M36.5 66.5C36.5 67.875 37.625 69 39 69H49C50.375 69 51.5 67.875 51.5 66.5V64H36.5V66.5ZM44 19C34.35 19 26.5 26.85 26.5 36.5C26.5 42.45 29.475 47.675 34 50.85V56.5C34 57.875 35.125 59 36.5 59H51.5C52.875 59 54 57.875 54 56.5V50.85C58.525 47.675 61.5 42.45 61.5 36.5C61.5 26.85 53.65 19 44 19ZM51.125 46.75L49 48.25V54H39V48.25L36.875 46.75C33.5 44.4 31.5 40.575 31.5 36.5C31.5 29.6 37.1 24 44 24C50.9 24 56.5 29.6 56.5 36.5C56.5 40.575 54.5 44.4 51.125 46.75Z" fill="#FFB901"/>
</svg>
