<svg width="90" height="90" viewBox="0 0 90 90" fill="none" xmlns="http://www.w3.org/2000/svg">
<rect x="2" y="2" width="86" height="86" rx="2" stroke="#DE6262" stroke-width="3"/>
<path d="M59.0935 47.115L51.8035 43.47C54.706 41.22 56.5735 37.71 56.5735 33.75C56.5735 26.9325 51.016 21.375 44.1985 21.375C37.381 21.375 31.8235 26.9325 31.8235 33.75C31.8235 38.5425 34.5685 42.705 38.5735 44.7525V52.0875C33.736 51.0525 34.0285 51.0975 33.4885 51.0975C32.296 51.0975 31.171 51.57 30.316 52.425L27.166 55.62L38.6185 67.0725C39.586 68.0625 40.936 68.625 42.331 68.625H56.506C58.711 68.625 60.5785 67.05 60.9385 64.8675L62.7385 54.27C63.2335 51.345 61.771 48.465 59.0935 47.115ZM58.306 53.5275L56.506 64.125H42.331C42.1285 64.125 41.9485 64.035 41.791 63.9L33.511 55.62L43.0735 57.6225V33.75C43.0735 33.12 43.5685 32.625 44.1985 32.625C44.8285 32.625 45.3235 33.12 45.3235 33.75V47.25H49.2835L57.0685 51.1425C57.9685 51.5925 58.4635 52.56 58.306 53.5275ZM36.3235 33.75C36.3235 29.4075 39.856 25.875 44.1985 25.875C48.541 25.875 52.0735 29.4075 52.0735 33.75C52.0735 35.8875 51.2185 37.8225 49.8235 39.24V33.75C49.8235 30.645 47.3035 28.125 44.1985 28.125C41.0935 28.125 38.5735 30.645 38.5735 33.75V39.24C37.1785 37.8225 36.3235 35.8875 36.3235 33.75Z" fill="#DE6262"/>
</svg>
